<svg width="2252" height="714" fill="none" xmlns="http://www.w3.org/2000/svg"><path d="M2017.55 713.669c-27.35 0-55.2-3.745-83.53-11.235-28-7.815-54.38-19.538-79.13-35.169l51.29-69.852c14.98 10.747 33.05 19.214 54.22 25.401 21.17 5.861 39.4 8.792 54.71 8.792 14.65 0 25.89-1.954 33.7-5.861 8.14-4.234 12.21-9.607 12.21-16.12 0-5.21-1.95-9.281-5.86-12.212-3.9-2.93-9.28-4.396-16.12-4.396-4.23 0-9.11.163-14.65.489-5.21.325-9.44.651-12.7.977-16.93 1.953-34.36 2.93-52.27 2.93-28.98 0-52.59-5.373-70.82-16.119-17.92-11.072-26.87-28.983-26.87-53.732 0-28.657 13.51-50.801 40.54-66.432 27.03-15.956 66.76-23.935 119.19-23.935 25.72 0 51.61 3.745 77.67 11.235 26.37 7.164 49.66 18.073 69.85 32.728l-56.18 56.662c-18.56-9.769-35.98-16.608-52.26-20.516-15.96-4.233-32.08-6.35-48.36-6.35-11.4 0-21.17 2.28-29.31 6.839-8.14 4.559-12.21 9.769-12.21 15.631 0 4.559 1.63 8.141 4.88 10.746 3.58 2.605 8.14 3.908 13.68 3.908 5.54 0 13.19-.489 22.96-1.465 23.77-1.629 41.52-2.443 53.24-2.443 33.87 0 60.08 5.699 78.64 17.097 18.57 11.397 27.85 28.819 27.85 52.266 0 35.17-13.68 60.733-41.03 76.69-27.36 15.631-65.13 23.446-113.33 23.446zM1740.18 514.372c13.68-49.172 47.71-73.759 102.09-73.759 9.45 0 18.57.652 27.36 1.954L1854 551.984c-23.45-8.792-42.66-13.188-57.64-13.188-18.56 0-32.24 5.536-41.03 16.608-8.8 11.072-13.19 25.889-13.19 44.45v-.488l-.49 32.239c0 23.121.65 48.847 1.95 77.178h-116.74c2.6-46.893 3.91-91.181 3.91-132.864 0-41.682-1.31-86.296-3.91-133.84 21.49.977 37.94 1.465 49.33 1.465 12.05 0 28.5-.488 49.34-1.465l14.65 72.293zM1545.96 586.667h-159.24c2.6 14.328 8.96 26.052 19.05 35.17 10.42 8.792 25.07 13.189 43.96 13.189 13.68 0 26.54-2.606 38.59-7.816 12.05-5.536 21.66-13.189 28.82-22.958 21.82 10.746 50.8 22.307 86.95 34.681-10.1 22.796-28.5 41.032-55.2 54.709-26.38 13.351-60.89 20.027-103.55 20.027-55.36 0-96.4-12.7-123.1-38.1-26.38-25.727-39.56-59.431-39.56-101.114 0-40.705 13.18-73.759 39.56-99.159 26.38-25.4 67.41-38.101 123.1-38.101 33.21 0 62.03 5.536 86.46 16.608 24.42 11.072 43.14 26.54 56.17 46.405 13.03 19.539 19.54 42.008 19.54 67.409 0 8.467-.33 14.817-.98 19.05h-60.57zm-93.79-75.713c-16.28 0-29.63 3.094-40.05 9.281-10.42 6.187-17.75 14.654-21.98 25.401h115.28c-3.91-10.421-10.26-18.725-19.05-24.912-8.79-6.513-20.19-9.77-34.2-9.77zM1206.67 586.667h-159.24c2.6 14.328 8.95 26.052 19.05 35.17 10.42 8.792 25.07 13.189 43.96 13.189 13.68 0 26.54-2.606 38.59-7.816 12.05-5.536 21.65-13.189 28.82-22.958 21.82 10.746 50.8 22.307 86.95 34.681-10.1 22.796-28.5 41.032-55.2 54.709-26.38 13.351-60.9 20.027-103.56 20.027-55.36 0-96.39-12.7-123.091-38.1-26.378-25.727-39.566-59.431-39.566-101.114 0-40.705 13.188-73.759 39.566-99.159 26.381-25.4 67.411-38.101 123.091-38.101 33.22 0 62.04 5.536 86.46 16.608 24.43 11.072 43.15 26.54 56.18 46.405 13.02 19.539 19.54 42.008 19.54 67.409 0 8.467-.33 14.817-.98 19.05h-60.57zm-93.79-75.713c-16.28 0-29.63 3.094-40.05 9.281-10.42 6.187-17.75 14.654-21.98 25.401h115.27c-3.9-10.421-10.25-18.725-19.05-24.912-8.79-6.513-20.19-9.77-34.19-9.77zM809.114 514.372c13.677-49.172 47.707-73.759 102.09-73.759 9.444 0 18.562.652 27.355 1.954l-15.632 109.417c-23.446-8.792-42.659-13.188-57.639-13.188-18.562 0-32.239 5.536-41.031 16.608-8.793 11.072-13.189 25.889-13.189 44.45v-.488l-.489 32.239c0 23.121.652 48.847 1.954 77.178H695.789c2.605-46.893 3.908-91.181 3.908-132.864 0-41.682-1.303-86.296-3.908-133.84 21.493.977 37.938 1.465 49.336 1.465 12.048 0 28.494-.488 49.335-1.465l14.654 72.293zM661.494 627.699c0 11.071 1.302 18.887 3.908 23.446 2.605 4.559 7.815 7.816 15.631 9.769l-1.954 45.917c-10.421 1.628-19.539 2.768-27.355 3.419-7.489.651-17.585.977-30.285.977-28.005 0-46.567-6.187-55.685-18.562-9.118-12.7-13.677-28.82-13.677-48.358v-12.212c-9.444 26.703-23.284 46.567-41.52 59.593-17.911 13.026-40.869 19.539-68.875 19.539-32.564 0-57.151-6.513-73.759-19.539-16.282-13.026-24.423-32.402-24.423-58.128 0-21.167 7.001-37.775 21.004-49.824s35.658-20.353 64.967-24.912c-24.749-17.585-49.499-32.89-74.248-45.916 19.539-24.749 41.846-43.474 66.921-56.174 25.074-13.026 55.522-19.539 91.343-19.539 50.15 0 87.274 10.909 111.372 32.728 24.423 21.492 36.635 54.708 36.635 99.648v58.128zM523.745 523.166c-16.608 0-31.262 2.768-43.962 8.304-12.7 5.536-24.098 13.84-34.193 24.912 19.539-2.28 43.962-3.419 73.271-3.419 12.049 0 20.515-1.466 25.4-4.397 4.885-2.93 7.327-6.675 7.327-11.234 0-3.908-2.442-7.165-7.327-9.77-4.885-2.931-11.723-4.396-20.516-4.396zm-51.289 108.44c18.236 0 34.681-3.419 49.335-10.258 14.655-7.164 24.75-16.445 30.286-27.842v-12.701c-7.816 3.908-16.446 7.002-25.889 9.281-9.444 1.954-20.842 3.908-34.193 5.862l-17.585 2.931c-18.236 3.582-27.354 9.769-27.354 18.562 0 9.443 8.466 14.165 25.4 14.165zM126.603 575.432c.651 16.608 5.861 29.96 15.631 40.055 10.095 10.095 24.912 15.142 44.45 15.142 10.747 0 20.353-1.954 28.82-5.861 8.467-4.234 16.282-10.421 23.447-18.562 27.68 10.746 60.081 20.027 97.205 27.843-10.746 25.074-28.982 44.613-54.708 58.616-25.401 14.003-58.454 21.004-99.16 21.004-54.383 0-94.6-12.7-120.652-38.1-26.052-25.401-39.077-58.78-39.077-100.137s13.025-74.736 39.077-100.136c26.052-25.4 66.269-38.101 120.652-38.101 40.706 0 73.759 7.002 99.16 21.005 25.726 14.002 43.962 33.541 54.708 58.616-28.982 6.187-61.384 15.468-97.205 27.843-7.165-8.141-14.98-14.166-23.447-18.074-8.467-4.233-18.073-6.35-28.82-6.35-19.538 0-34.355 5.048-44.45 15.143-9.77 10.095-14.98 23.446-15.631 40.054z" fill="#1023CE"/><path d="M94.426 65.246c38.513-26.354 83.64-46.892 122.836-45.439 26.971 1 48.781 9.437 55.059 31.557 2.676 9.428 1.91 19.837-.902 30.543C324.672 45.912 378.848 19.8 437.948 19.8c10.939 0 21.134 2.35 28.541 9.057 7.721 6.99 10.169 16.629 9.861 26.165-.302 9.347-3.228 19.773-7.641 30.641-4.466 11.002-10.757 23.178-18.422 36.213-15.623 26.572-37.565 57.717-63.036 91.268a2039.385 2039.385 0 0 1 31.763-30.699c42.553-40.217 89.22-80.542 133.488-110.888 22.137-15.176 43.907-28.016 64.446-37.097 20.433-9.034 40.346-14.662 58.576-14.662 17.539 0 33.43 4.424 40.016 18.715 3.069 6.659 3.224 13.887 2.072 20.644-1.154 6.768-3.748 13.869-7.148 21.02-13.347 28.063-43.235 64.996-74.576 101.94-31.92 37.627-65.907 75.883-89.598 108.061-11.87 16.122-20.568 29.955-25.113 40.843-4.095 9.81-3.524 13.987-2.929 15.477.583.148 1.752.36 3.81.382 4.509.05 10.979-.848 19.36-2.868 16.636-4.009 38.374-11.828 62.136-21.773 24.635-10.311 50.951-22.697 75.227-34.972.073-12.164 1.723-24.938 4.657-37.786 18.244-79.896 89.528-179.985 197.013-217.39 25.407-8.84 46.739-11.37 63.237-7.717 17.221 3.813 29.221 14.537 33.046 30.312 3.577 14.752-.565 31.627-9.502 47.875-9.069 16.487-23.742 33.622-43.574 49.659-59.233 47.899-90.128 74.116-173.703 123.381-13.081 7.711-29.141 16.565-46.696 25.697 1.883 13.896 6.834 24.694 14.258 31.752 13.654 12.979 41.357 18.269 91.135-3.401 117.466-51.139 222.048-141.947 272.308-183.406 2.13-1.749 4.3-3.63 6.52-5.623-13.13-15.397-23.66-32.833-23.16-51.902.55-20.857 16.79-38.182 33.78-49.434 17.51-11.594 39.78-19.483 58.97-19.484 7.02 0 14.58 1.897 19.73 8.13 4.99 6.044 5.46 13.487 4.73 19.404-1.44 11.59-8.49 25.587-16.98 38.957-11.49 18.074-27.65 38.081-43.89 55.029 5.62 5.503 11.66 11.087 17.93 16.808 9.44 8.618 19.44 17.597 28.73 26.666 5.37 5.246 10.69 10.695 15.68 16.339 47.98-28.833 90.84-56.263 125.72-80.533-5.08-9.91-8.15-20.533-7.85-31.882.55-20.857 16.79-38.183 33.78-49.435 17.51-11.594 39.78-19.483 58.97-19.485 4.86 0 9.46.422 13.54 1.514 4.04 1.079 8.38 3.032 11.74 6.693 7.82 8.55 4.85 19.179 1.5 25.774-3.57 7.047-9.89 14.65-17.67 22.474-7.94 7.986-18.08 16.862-30.04 26.436-9.35 7.485-19.9 15.478-31.53 23.899 2.39 2.904 5.04 5.869 7.91 8.9 16.32 17.179 36.14 32.707 55.67 50.876 1.3 1.217 2.61 2.446 3.91 3.687 22.03-13.195 44.38-26.796 66.64-40.337 35.74-21.741 71.23-43.328 104.52-62.682 64.83-37.692 103.96-55.183 126.42-62.056 5.67-1.734 10.51-2.868 14.6-3.447 3.9-.553 7.92-.724 11.56.104 3.39.77 9.81 3.38 11.53 10.796 1.49 6.41-1.91 11.308-3.58 13.294-8.32 9.922-30.35 29.85-56.58 53.959-26.74 24.572-58.91 54.417-88.89 85.135-30.09 30.82-57.48 62.029-74.94 89.302-8.75 13.66-14.62 25.743-17.29 35.864-2.68 10.123-1.84 16.921.81 21.534 2.17 3.779 6.61 6.847 17.96 5.948 11.54-.914 27.2-5.913 46.34-14.822 38.01-17.7 85.78-48.939 134.15-84.435 51.49-37.785 102.86-79.795 142.76-114.227 31.24-34.204 57.74-62.994 76.79-83.231 8.25-8.762 14.3-14.585 18.29-17.134.81-.519 3.17-2.02 6.27-2.427 1.77-.23 5.08-.27 8.38 1.88 3.51 2.29 4.89 5.657 5.33 7.956.71 3.626-.4 6.695-.64 7.386-.46 1.311-1.05 2.562-1.59 3.61-3.99 7.722-14.66 22.074-24.42 32.719-10.25 11.186-36.73 35.859-71.88 66.226-49.98 54.729-112.01 123.25-175.06 192.843 74.07-18.771 150.25-30.778 222.24-35.241 71.83-4.452 139.9-1.423 197.84 10.094 57.72 11.473 106.61 31.609 138.75 62.366 4.72 4.516 4.88 12.003.37 16.723-4.52 4.719-12.01 4.884-16.73.368-27.51-26.324-71.35-45.195-127-56.257-55.42-11.016-121.37-14.048-191.76-9.684-82.13 5.091-169.76 20.209-253.09 44.049-103.57 114.261-205.28 226.101-255.82 278.663-19.78 20.574-37.81 35.079-53.83 44.133-15.84 8.953-30.84 13.197-44.05 11.307-14.03-2.007-24.16-10.67-29.53-23.048-5.13-11.796-5.87-26.579-3.36-42.385 10.03-63.028 74.55-160.125 207.51-225.817 51.05-25.224 107.49-46.596 166.06-63.713 3.03-3.344 6.07-6.689 9.1-10.036 29.26-32.292 58.53-64.611 86.69-95.678-7.85 5.949-15.73 11.84-23.62 17.626-48.68 35.724-97.98 68.094-138.17 86.809-19.96 9.298-38.68 15.709-54.45 16.958-15.95 1.263-31.73-2.753-40.34-17.75-6.9-12.009-6.74-25.886-3.17-39.362 3.56-13.477 10.85-27.917 20.24-42.572 18.8-29.357 47.56-61.953 77.93-93.068 30.47-31.218 63.06-61.441 89.81-86.028 12.69-11.663 23.85-21.871 32.86-30.293-21.65 8.313-56.17 24.85-108.91 55.509-33.05 19.214-68.34 40.675-104.12 62.441-20.67 12.575-41.5 25.25-62.12 37.624 9.91 11.515 18.01 23.924 21.74 37.299 3.19 11.445 3.17 23.478-1.3 35.822-4.4 12.156-12.86 23.917-25.43 35.498-22.65 20.881-63 38.779-104.48 46.657-41.3 7.844-87.31 6.423-119.96-15.613a12.691 12.691 0 0 1-5.5-8.94c-.4-3.203.49-5.77 1.08-7.123 1.15-2.649 3.01-4.77 4.22-6.064 2.73-2.91 6.78-6.281 11.42-9.835 9.48-7.26 23.5-16.819 40.18-27.627 33.44-21.677 78.49-48.972 121.53-74.078 6.13-3.58 12.32-7.218 18.54-10.9-17.14-15.834-39.21-33.628-55.58-50.866-3.5-3.684-6.91-7.508-10.11-11.47-34.84 24.223-77.18 51.327-124.23 79.656 5.24 8.007 9.39 16.349 11.81 25.015 3.22 11.526 3.39 23.631-.83 35.987-4.17 12.212-12.37 23.896-24.63 35.202-22.64 20.863-62.72 38.771-103.96 46.654-41.07 7.851-86.817 6.42-119.458-15.611-2.004-1.353-4.201-3.604-5.289-6.969-1.07-3.311-.619-6.322.082-8.422 1.216-3.64 3.728-6.225 5.111-7.548 3.208-3.069 8.002-6.311 13.219-9.504 10.757-6.584 26.725-14.985 44.995-24.346 36.92-18.915 84.15-42.191 122.53-64.541 7.13-4.15 14.17-8.285 21.11-12.394-3.54-3.853-7.39-7.773-11.48-11.768-8.91-8.708-18.49-17.299-28.15-26.121-6.41-5.847-12.83-11.781-18.92-17.763a234.23 234.23 0 0 1-7.7 6.658c-49.5 40.819-156.786 134.108-277.925 186.846-52.241 22.742-92.468 22.06-116.877-1.144-10.392-9.88-16.82-22.878-20.004-37.685-22.41 11.144-46.127 22.175-68.528 31.551-24.167 10.114-47.262 18.499-65.725 22.949-9.17 2.21-17.817 3.605-25.162 3.525-6.677-.074-15.713-1.389-21.473-8.381-9.77-11.862-6.224-27.677-.978-40.244 5.669-13.582 15.751-29.262 27.893-45.755 24.334-33.052 59.303-72.436 90.609-109.34 31.885-37.586 59.493-72.074 71.251-96.797 2.876-6.046 4.534-10.978 5.192-14.835.659-3.867.184-5.859-.236-6.769-.389-.844-2.904-4.96-18.533-4.96-13.645 0-30.129 4.294-49.01 12.641-18.774 8.3-39.235 20.302-60.637 34.973-42.811 29.348-88.462 68.73-130.615 108.57-42.101 39.79-80.456 79.791-108.663 110.219a2793.698 2793.698 0 0 0-33.852 37.185c-4.103 4.589-7.368 8.269-9.711 10.907-2.076 2.336-3.916 4.415-4.663 5.145a12.572 12.572 0 0 1-3.423 2.393c-1.759.83-5.783 2.134-10.275-.004-4.275-2.034-5.8-5.71-6.282-7.233a12.654 12.654 0 0 1-.583-3.765c-.013-2.388.658-4.684.992-5.785.909-2.998 2.552-7.048 4.892-11.792 4.74-9.611 12.831-23.068 25.235-38.179 58.147-70.841 111.542-138.797 140.967-188.841 7.32-12.45 13.009-23.548 16.896-33.122 3.941-9.708 5.742-17.16 5.914-22.506.167-5.156-1.162-7.024-2.094-7.868-1.245-1.127-4.577-2.937-12.664-2.937-63.012 0-121.691 33.613-185.319 80.851-31.188 53.968-87.54 114.633-135.623 161.449a1744.734 1744.734 0 0 1-63.612 58.876c-8.25 7.258-14.984 13.03-19.678 16.986a474.935 474.935 0 0 1-5.485 4.564c-.635.519-1.178.955-1.59 1.277-.186.146-.447.348-.712.54-.088.064-.42.304-.843.563-.101.062-.8.502-1.76.891-.652.242-2.692.736-4.096.862-3.315-.371-10.074-5.08-11.997-9.728-3.28-18.226 5.506-38.7 18.338-58.31 13.243-20.237 32.663-42.323 55.196-64.711 44.543-44.258 102.699-91.111 153.737-129.252 6.669-12.008 11.152-22.262 13.601-30.827 2.619-9.159 2.65-15.468 1.459-19.663-1.801-6.345-8.559-13.465-33.179-14.377-31.489-1.168-71.371 15.847-108.601 41.321-36.957 25.289-68.839 57.224-84.535 82.659-3.43 5.559-10.718 7.284-16.277 3.853-5.559-3.43-7.284-10.717-3.854-16.276 17.927-29.049 52.522-63.218 91.308-89.757zM1612.46 379.865c-43.69 14.434-85.63 31.309-124.31 50.423-128.28 63.382-186.14 155.01-194.63 208.328-2.11 13.281-.99 23.061 1.69 29.241 2.43 5.598 6.07 8.325 11.19 9.058 5.94.85 15.5-.815 29.06-8.484 13.39-7.569 29.63-20.398 48.42-39.935 45.91-47.747 134.55-144.972 228.58-248.631zm-207.67-159.972c-8.03 4.769-16.01 9.473-23.91 14.084-42.87 25.004-87.57 52.094-120.59 73.495-16.55 10.73-29.94 19.882-38.66 26.558-.09.068-.18.137-.26.204 24.4 10.762 57.1 11.638 90.21 5.35 38.76-7.363 74.5-23.882 92.86-40.81 10.68-9.843 16.47-18.568 19.22-26.16 2.68-7.404 2.72-14.381.76-21.409-2.82-10.093-9.75-20.397-19.63-31.312zm-227.53 12.212c-7.95 4.714-16.02 9.458-24.2 14.218-39.11 22.773-87.26 46.513-123.65 65.152-18 9.223-32.927 17.099-42.809 23.096 24.269 10.445 56.409 11.233 88.929 5.017 38.49-7.357 73.98-23.868 92.36-40.813 10.22-9.414 15.71-17.922 18.28-25.455 2.53-7.388 2.5-14.581.44-21.984-1.76-6.284-4.96-12.676-9.35-19.231zm-988.387-58.46c-32.545 26.273-64.614 54.052-91.433 80.699-22.02 21.88-40.132 42.634-52.074 60.884-2.43 3.714-4.538 7.227-6.346 10.539 16.149-14.237 37.937-34.033 61.485-56.96 29.484-28.707 61.354-61.97 88.368-95.162zM938.574 47.469c-10.447-2.313-26.954-1.177-50.348 6.964C789.38 88.83 723.163 181.77 706.498 254.748c-1.592 6.97-2.701 13.608-3.36 19.884 12.953-6.899 24.795-13.507 34.804-19.407 82.008-48.341 111.794-73.647 170.842-121.397 17.98-14.539 30.429-29.409 37.722-42.667 7.424-13.498 8.885-24.109 7.239-30.899-1.398-5.766-5.448-10.64-15.171-12.793zm218.496-4.013c-13.54.001-31.34 5.9-45.91 15.552-15.09 9.993-22.95 21.369-23.19 30.336-.27 10.056 5.38 21.373 16.49 34.694 14.83-15.595 29.66-33.975 40.12-50.433 8.3-13.049 12.74-23.213 13.47-29.178.05-.36.08-.67.09-.935-.3-.022-.65-.036-1.07-.036zm236.55-.001c-13.54 0-31.34 5.9-45.91 15.552-15.09 9.993-22.95 21.37-23.19 30.337-.15 5.653 1.14 11.408 3.77 17.359 10.93-7.935 20.84-15.45 29.61-22.476 11.55-9.25 20.96-17.517 28.06-24.654 6.82-6.855 10.95-12.127 12.98-15.812-1.34-.182-3.1-.306-5.32-.306z" fill="#1023CE"/><path d="M1472.11 438.704c-100.71 57.051-156.84 124.446-177.93 196.439 16.46 37.025 33.73 42.125 42.17 43.71 0 0 13.89-83.245 62.94-141.881 49.04-58.635 116.02-89.273 116.02-89.273-17.94-6.868-36-7.966-43.2-8.995z" fill="url(#a)"/><path d="M1426.86 437.676c-50.1 29.053-111.08 82.278-142.96 153.243-2.64-17.433-.62-30.34 3.06-47.079 12.66-57.579 53.8-82.069 73.05-90.223 30.34-12.856 43.71-13.884 66.85-15.941z" fill="url(#b)"/><defs><linearGradient id="a" x1="1399.29" y1="536.444" x2="1339.61" y2="484.775" gradientUnits="userSpaceOnUse"><stop stop-color="#1023CE"/><stop offset=".529" stop-color="#0B188C"/><stop offset="1" stop-color="#1023CE"/></linearGradient><linearGradient id="b" x1="1399.29" y1="536.444" x2="1339.61" y2="484.775" gradientUnits="userSpaceOnUse"><stop stop-color="#1023CE"/><stop offset=".529" stop-color="#0B188C"/><stop offset="1" stop-color="#1023CE"/></linearGradient></defs></svg>
